<svg xmlns="http://www.w3.org/2000/svg" width="1400" height="500" viewBox="0 0 1400 500" role="img" aria-label="Leviathan Command Core"><defs><radialGradient id="bg" cx="56%" cy="48%" r="78%"><stop offset="0" stop-color="#0b304d"/><stop offset=".46" stop-color="#061927"/><stop offset="1" stop-color="#02060b"/></radialGradient><linearGradient id="cyan"><stop stop-color="#7ff7ff"/><stop offset=".45" stop-color="#31cfff"/><stop offset="1" stop-color="#6f73ff"/></linearGradient><filter id="glow"><feGaussianBlur stdDeviation="6" result="b"/><feMerge><feMergeNode in="b"/><feMergeNode in="SourceGraphic"/></feMerge></filter><pattern id="grid" width="44" height="44" patternUnits="userSpaceOnUse"><path d="M44 0H0V44" fill="none" stroke="#60eaff" stroke-opacity=".045"/></pattern></defs><rect width="1400" height="500" rx="34" fill="url(#bg)"/><rect width="1400" height="500" rx="34" fill="url(#grid)"/><text x="44" y="48" fill="#72efff" font-family="Consolas,monospace" font-size="12" letter-spacing="3">LEVIATHAN // COMMAND CORE</text><text x="1356" y="48" text-anchor="end" fill="#55778c" font-family="Consolas,monospace" font-size="10">PUBLIC SAFE · INTERNAL BASELINE</text><path d="M42 68H1358" stroke="#16415b"/><g transform="translate(1035 250)"><circle r="154" fill="#03101b" stroke="#174c6e"/><circle r="132" fill="none" stroke="#2b7097" stroke-dasharray="6 13"><animateTransform attributeName="transform" type="rotate" from="0" to="360" dur="26s" repeatCount="indefinite"/></circle><circle r="106" fill="none" stroke="#54e8ff" stroke-opacity=".58" stroke-dasharray="26 11 4 11"><animateTransform attributeName="transform" type="rotate" from="360" to="0" dur="17s" repeatCount="indefinite"/></circle><circle r="80" fill="#08233a" stroke="url(#cyan)" stroke-width="3" filter="url(#glow)"/><path d="M0-72L15-41 49-49 41-15 72 0 41 15 49 49 15 41 0 72-15 41-49 49-41 15-72 0-41-15-49-49-15-41Z" fill="none" stroke="#78f4ff" stroke-opacity=".48"><animateTransform attributeName="transform" type="rotate" from="0" to="360" dur="12s" repeatCount="indefinite"/></path><text y="-8" text-anchor="middle" fill="#fff" font-family="Segoe UI,Arial" font-size="20" font-weight="800">CORE</text><text y="16" text-anchor="middle" fill="#6eeaff" font-family="Consolas,monospace" font-size="10">ROUTING ONLINE</text><path d="M0-175A175 175 0 0 1 152-88" stroke="#7cf7ff" stroke-width="3" stroke-linecap="round" opacity=".8" filter="url(#glow)"><animateTransform attributeName="transform" type="rotate" from="0" to="360" dur="5.8s" repeatCount="indefinite"/></path></g><g transform="translate(58 103)" font-family="Segoe UI,Arial"><text x="0" y="0" fill="#67eaff" font-family="Consolas,monospace" font-size="11" letter-spacing="2">OPERATING STATE</text><text x="0" y="48" fill="#fff" font-size="31" font-weight="800">STABILIZATION + VALIDATION</text><text x="0" y="77" fill="#7d99ab" font-size="13">Subsystem signals converge, validate and return actionable state.</text><g transform="translate(0 111)"><path d="M0 0H670L696 26V96H0Z" fill="#061725" stroke="#1a5574"/><g font-family="Consolas,monospace" font-size="10"><text x="20" y="23" fill="#62879c">BASELINE</text><text x="20" y="48" fill="#e8f9ff" font-family="Segoe UI,Arial" font-size="16" font-weight="700">v51.0.6</text><text x="160" y="23" fill="#62879c">SOURCE</text><text x="160" y="48" fill="#e8f9ff" font-family="Segoe UI,Arial" font-size="16" font-weight="700">PRIVATE</text><text x="300" y="23" fill="#62879c">RELEASE GATE</text><text x="300" y="48" fill="#ffc06b" font-family="Segoe UI,Arial" font-size="16" font-weight="700">CLOSED</text><text x="475" y="23" fill="#62879c">SYSTEM</text><text x="475" y="48" fill="#61e9af" font-family="Segoe UI,Arial" font-size="16" font-weight="700">NOMINAL</text></g><rect x="20" y="70" width="622" height="4" rx="2" fill="#12364d"/><rect x="20" y="70" width="255" height="4" rx="2" fill="url(#cyan)" filter="url(#glow)"><animate attributeName="width" values="180;560;255;180" dur="7.5s" repeatCount="indefinite"/></rect></g></g><g font-family="Consolas,monospace" font-size="10"><g transform="translate(70 350)"><path d="M0 0H126L140 14V60H0Z" fill="#071a27" stroke="#28718f"/><text x="18" y="24" fill="#6beaff">LAUNCHER</text><text x="18" y="45" fill="#d7f5fb">READY</text></g><g transform="translate(230 350)"><path d="M0 0H126L140 14V60H0Z" fill="#071a27" stroke="#28718f"/><text x="18" y="24" fill="#6beaff">CLIENT</text><text x="18" y="45" fill="#d7f5fb">READY</text></g><g transform="translate(390 350)"><path d="M0 0H126L140 14V60H0Z" fill="#111925" stroke="#9b6a31"/><text x="18" y="24" fill="#ffc16a">NIMBUS</text><text x="18" y="45" fill="#ffe0b0">VALIDATING</text></g><g transform="translate(550 350)"><path d="M0 0H126L140 14V60H0Z" fill="#0b172d" stroke="#625db0"/><text x="18" y="24" fill="#9f94ff">API</text><text x="18" y="45" fill="#e2deff">ROUTING</text></g><g transform="translate(710 350)"><path d="M0 0H126L140 14V60H0Z" fill="#071d27" stroke="#2e8b72"/><text x="18" y="24" fill="#61e6b9">CAST</text><text x="18" y="45" fill="#d7fff2">SYNC</text></g></g><g fill="none" stroke-width="2"><path id="s1" d="M210 380C430 382 650 360 890 285" stroke="#2d7899"/><path id="s2" d="M370 380C545 370 720 340 895 305" stroke="#357d9b"/><path id="s3" d="M530 380C680 365 790 340 905 320" stroke="#a06c33"/><path id="s4" d="M690 380C800 365 850 350 915 335" stroke="#615ec2"/><path id="s5" d="M850 380C905 366 930 350 945 340" stroke="#318d75"/></g><g filter="url(#glow)"><circle r="5" fill="#63edff"><animateMotion dur="3.5s" repeatCount="indefinite"><mpath href="#s1"/></animateMotion></circle><circle r="5" fill="#63edff"><animateMotion dur="4.2s" begin="-.8s" repeatCount="indefinite"><mpath href="#s2"/></animateMotion></circle><circle r="5" fill="#ffc26f"><animateMotion dur="4.4s" begin="-1.4s" repeatCount="indefinite"><mpath href="#s3"/></animateMotion></circle><circle r="5" fill="#9a90ff"><animateMotion dur="3.9s" begin="-1s" repeatCount="indefinite"><mpath href="#s4"/></animateMotion></circle><circle r="5" fill="#60e8ba"><animateMotion dur="4.1s" begin="-2s" repeatCount="indefinite"><mpath href="#s5"/></animateMotion></circle></g><path d="M42 447H1358" stroke="#153e56"/><text x="44" y="474" fill="#55798e" font-family="Consolas,monospace" font-size="10">RESEARCH → ARCHITECTURE → BUILD → INTEGRATION → SECURITY → TESTING → STABILIZATION → RELEASE PREPARATION</text><rect x="5" y="5" width="1390" height="490" rx="30" fill="none" stroke="url(#cyan)" stroke-width="2.4" stroke-dasharray="520 1700" filter="url(#glow)" opacity=".75"><animate attributeName="stroke-dashoffset" values="0;-2220" dur="10s" repeatCount="indefinite"/></rect></svg>