<svg xmlns="http://www.w3.org/2000/svg" width="1200" height="620" viewBox="0 0 1200 620"><defs><radialGradient id="bg"><stop stop-color="#0b2e4d"/><stop offset="1" stop-color="#010407"/></radialGradient></defs><rect width="1200" height="620" rx="30" fill="url(#bg)"/><text x="42" y="46" fill="#59f2ff" font-family="Consolas" font-size="13" letter-spacing="3">LEVIATHAN DATA PLATFORM // PUBLIC ARCHITECTURE</text><text x="42" y="70" fill="#6f91a5" font-family="Segoe UI" font-size="12">Sanitized data relationships without private schemas, hosts or credentials.</text><g font-family="Segoe UI" font-size="13" font-weight="700" text-anchor="middle"><rect x="85" y="153" width="190" height="64" rx="12" fill="#071826" stroke="#59f2ff"/><text x="180" y="190" fill="#ecfbff">IDENTITY</text><rect x="85" y="303" width="190" height="64" rx="12" fill="#071826" stroke="#59f2ff"/><text x="180" y="340" fill="#ecfbff">LAUNCHER</text><rect x="85" y="453" width="190" height="64" rx="12" fill="#071826" stroke="#ffb45e"/><text x="180" y="490" fill="#ecfbff">NIMBUS</text><rect x="925" y="153" width="190" height="64" rx="12" fill="#071826" stroke="#6b5cff"/><text x="1020" y="190" fill="#ecfbff">API</text><rect x="925" y="303" width="190" height="64" rx="12" fill="#071826" stroke="#54e6b8"/><text x="1020" y="340" fill="#ecfbff">TELEMETRY</text><rect x="925" y="453" width="190" height="64" rx="12" fill="#071826" stroke="#ffb45e"/><text x="1020" y="490" fill="#ecfbff">COMMERCE</text></g><g fill="none" stroke-width="1.6" opacity=".38"><path id="d0" d="M275 185C420 185 465 330 505 330" stroke="#59f2ff"/><path id="d1" d="M275 335C420 335 465 330 505 330" stroke="#59f2ff"/><path id="d2" d="M275 485C420 485 465 330 505 330" stroke="#ffb45e"/><path id="d3" d="M925 185C780 185 735 330 695 330" stroke="#6b5cff"/><path id="d4" d="M925 335C780 335 735 330 695 330" stroke="#54e6b8"/><path id="d5" d="M925 485C780 485 735 330 695 330" stroke="#ffb45e"/></g><g><circle r="5" fill="#59f2ff"><animateMotion dur="3.2s" repeatCount="indefinite"><mpath href="#d0"/></animateMotion></circle><circle r="5" fill="#54e6b8"><animateMotion dur="4.4s" repeatCount="indefinite"><mpath href="#d4"/></animateMotion></circle><circle r="5" fill="#ffb45e"><animateMotion dur="4.7s" repeatCount="indefinite"><mpath href="#d5"/></animateMotion></circle></g><g transform="translate(600 330)"><circle r="118" fill="none" stroke="#59f2ff" stroke-width="2.2" stroke-dasharray="18 28 5 12" opacity=".55"><animateTransform attributeName="transform" type="rotate" from="0" to="360" dur="48s" repeatCount="indefinite"/></circle><circle r="92" fill="none" stroke="#3f7cff" stroke-width="2.2" stroke-dasharray="23 25 5 12" opacity=".47"><animateTransform attributeName="transform" type="rotate" from="360" to="0" dur="31s" repeatCount="indefinite"/></circle><rect x="-92" y="-70" width="184" height="140" rx="20" fill="#061722" stroke="#2be8ff"/><text y="-15" text-anchor="middle" fill="#59f2ff" font-family="Consolas" font-size="10">PRIMARY DATA PLANE</text><text y="18" text-anchor="middle" fill="#ecfbff" font-family="Segoe UI" font-size="20" font-weight="800">PostgreSQL + Events</text></g></svg>