<svg xmlns="http://www.w3.org/2000/svg" width="1200" height="650" viewBox="0 0 1200 650">
<defs>
<linearGradient id="bg" x1="0" y1="0" x2="1" y2="1">
  <stop stop-color="#020811"/><stop offset=".55" stop-color="#061723"/><stop offset="1" stop-color="#020a12"/>
</linearGradient>
<linearGradient id="edge" x1="0" y1="0" x2="1" y2="0">
  <stop stop-color="#087dff"/><stop offset=".5" stop-color="#35e9ff"/><stop offset="1" stop-color="#00a5ff"/>
</linearGradient>
<radialGradient id="energy">
  <stop stop-color="#8ff9ff" stop-opacity=".55"/><stop offset=".28" stop-color="#22dfff" stop-opacity=".15"/><stop offset="1" stop-color="#02101a" stop-opacity="0"/>
</radialGradient>
<filter id="glow" x="-100%" y="-100%" width="300%" height="300%">
  <feGaussianBlur stdDeviation="3.5" result="b"/><feMerge><feMergeNode in="b"/><feMergeNode in="SourceGraphic"/></feMerge>
</filter>
<pattern id="grid" width="28" height="28" patternUnits="userSpaceOnUse">
  <path d="M28 0H0V28" fill="none" stroke="#12374d" opacity=".14"/>
</pattern>
</defs>
<rect width="1200" height="650" rx="24" fill="url(#bg)"/>
<rect width="1200" height="650" rx="24" fill="url(#grid)"/>
<rect x="1" y="1" width="1198" height="648" rx="23" fill="none" stroke="#173d52"/>
<text x="42" y="43" fill="#58eaff" font-family="ui-monospace,Consolas,monospace" font-size="14" letter-spacing="2.8">IDENTITY &amp; EXTERNAL SERVICE BOUNDARIES</text>
<text x="42" y="67" fill="#7e9caf" font-family="Segoe UI,Arial,sans-serif" font-size="11">Six trust stages route around a single Leviathan identity boundary core.</text>
<path d="M42 86H1158" stroke="#14384a"/>
<rect x="42" y="84" width="120" height="3" rx="1.5" fill="url(#edge)" filter="url(#glow)"><animate attributeName="x" values="42;1038;42" dur="12s" repeatCount="indefinite"/></rect>
<g><path d="M64 122H240L254 136V206H64Z" fill="#061722" stroke="#35e9ff" stroke-opacity=".52"/><text x="82" y="146" fill="#effcff" font-family="Segoe UI,Arial,sans-serif" font-size="14" font-weight="700">01 MICROSOFT</text><text x="84" y="169" fill="#cae5ed" font-family="ui-monospace,Consolas,monospace" font-size="8.6">OAUTH</text><path d="M82 189H230" stroke="#35e9ff" stroke-opacity=".22" stroke-dasharray="18 10"/></g>
<g><path d="M282 104H458L472 118V188H282Z" fill="#061722" stroke="#35e9ff" stroke-opacity=".52"/><text x="300" y="128" fill="#effcff" font-family="Segoe UI,Arial,sans-serif" font-size="14" font-weight="700">02 XBOX LIVE</text><text x="302" y="151" fill="#cae5ed" font-family="ui-monospace,Consolas,monospace" font-size="8.6">IDENTITY</text><path d="M300 171H448" stroke="#35e9ff" stroke-opacity=".22" stroke-dasharray="18 10"/></g>
<g><path d="M728 104H904L918 118V188H728Z" fill="#061722" stroke="#8b7cff" stroke-opacity=".52"/><text x="746" y="128" fill="#effcff" font-family="Segoe UI,Arial,sans-serif" font-size="14" font-weight="700">03 XSTS</text><text x="748" y="151" fill="#cae5ed" font-family="ui-monospace,Consolas,monospace" font-size="8.6">AUTHORIZATION</text><path d="M746 171H894" stroke="#8b7cff" stroke-opacity=".22" stroke-dasharray="18 10"/></g>
<g><path d="M946 122H1122L1136 136V206H946Z" fill="#061722" stroke="#8b7cff" stroke-opacity=".52"/><text x="964" y="146" fill="#effcff" font-family="Segoe UI,Arial,sans-serif" font-size="14" font-weight="700">04 MINECRAFT</text><text x="966" y="169" fill="#cae5ed" font-family="ui-monospace,Consolas,monospace" font-size="8.6">SERVICES</text><path d="M964 189H1112" stroke="#8b7cff" stroke-opacity=".22" stroke-dasharray="18 10"/></g>
<g><path d="M946 424H1122L1136 438V508H946Z" fill="#061722" stroke="#55e4ae" stroke-opacity=".52"/><text x="964" y="448" fill="#effcff" font-family="Segoe UI,Arial,sans-serif" font-size="14" font-weight="700">05 OWNERSHIP</text><text x="966" y="471" fill="#cae5ed" font-family="ui-monospace,Consolas,monospace" font-size="8.6">PROFILE</text><path d="M964 491H1112" stroke="#55e4ae" stroke-opacity=".22" stroke-dasharray="18 10"/></g>
<g><path d="M64 424H240L254 438V508H64Z" fill="#061722" stroke="#55e4ae" stroke-opacity=".52"/><text x="82" y="448" fill="#effcff" font-family="Segoe UI,Arial,sans-serif" font-size="14" font-weight="700">06 LEVIATHAN</text><text x="84" y="471" fill="#cae5ed" font-family="ui-monospace,Consolas,monospace" font-size="8.6">IDENTITY BOUNDARY</text><path d="M82 491H230" stroke="#55e4ae" stroke-opacity=".22" stroke-dasharray="18 10"/></g>
<path id="ex1" d="M254 164H380L500 246" fill="none" stroke="#35e9ff" stroke-width="1.55" stroke-opacity="0.72"/><circle r="3.7" fill="#c9fbff" filter="url(#glow)" opacity="0"><animateMotion dur="5s" begin="0s" repeatCount="indefinite" calcMode="paced"><mpath href="#ex1"/></animateMotion><animate attributeName="opacity" dur="5s" begin="0s" repeatCount="indefinite" values="0;1;1;0;0" keyTimes="0;.08;.78;.9;1"/></circle>
<path id="ex2" d="M472 146H515L545 215" fill="none" stroke="#35e9ff" stroke-width="1.55" stroke-opacity="0.72"/><circle r="3.7" fill="#c9fbff" filter="url(#glow)" opacity="0"><animateMotion dur="5.2s" begin=".7s" repeatCount="indefinite" calcMode="paced"><mpath href="#ex2"/></animateMotion><animate attributeName="opacity" dur="5.2s" begin=".7s" repeatCount="indefinite" values="0;1;1;0;0" keyTimes="0;.08;.78;.9;1"/></circle>
<path id="ex3" d="M728 146H685L655 215" fill="none" stroke="#8b7cff" stroke-width="1.55" stroke-opacity="0.72"/><circle r="3.7" fill="#c9fbff" filter="url(#glow)" opacity="0"><animateMotion dur="5.4s" begin="1.4s" repeatCount="indefinite" calcMode="paced"><mpath href="#ex3"/></animateMotion><animate attributeName="opacity" dur="5.4s" begin="1.4s" repeatCount="indefinite" values="0;1;1;0;0" keyTimes="0;.08;.78;.9;1"/></circle>
<path id="ex4" d="M946 164H820L700 246" fill="none" stroke="#8b7cff" stroke-width="1.55" stroke-opacity="0.72"/><circle r="3.7" fill="#c9fbff" filter="url(#glow)" opacity="0"><animateMotion dur="5.6s" begin="2.1s" repeatCount="indefinite" calcMode="paced"><mpath href="#ex4"/></animateMotion><animate attributeName="opacity" dur="5.6s" begin="2.1s" repeatCount="indefinite" values="0;1;1;0;0" keyTimes="0;.08;.78;.9;1"/></circle>
<path id="ex5" d="M946 466H820L700 404" fill="none" stroke="#55e4ae" stroke-width="1.55" stroke-opacity="0.72"/><circle r="3.7" fill="#c9fbff" filter="url(#glow)" opacity="0"><animateMotion dur="5.8s" begin="2.8s" repeatCount="indefinite" calcMode="paced"><mpath href="#ex5"/></animateMotion><animate attributeName="opacity" dur="5.8s" begin="2.8s" repeatCount="indefinite" values="0;1;1;0;0" keyTimes="0;.08;.78;.9;1"/></circle>
<path id="ex6" d="M254 466H380L500 404" fill="none" stroke="#55e4ae" stroke-width="1.55" stroke-opacity="0.72"/><circle r="3.7" fill="#c9fbff" filter="url(#glow)" opacity="0"><animateMotion dur="6s" begin="3.5s" repeatCount="indefinite" calcMode="paced"><mpath href="#ex6"/></animateMotion><animate attributeName="opacity" dur="6s" begin="3.5s" repeatCount="indefinite" values="0;1;1;0;0" keyTimes="0;.08;.78;.9;1"/></circle>
<g transform="translate(600 325)">
<circle r="122" fill="url(#energy)"/>
<circle r="108" fill="none" stroke="#35e9ff" stroke-width="2.4" stroke-dasharray="42 16 9 12" filter="url(#glow)">
  <animateTransform attributeName="transform" type="rotate" from="0 0 0" to="360 0 0" dur="22s" repeatCount="indefinite"/>
</circle>
<circle r="96" fill="none" stroke="#2a7590" stroke-width="1.1" stroke-dasharray="18 15">
  <animateTransform attributeName="transform" type="rotate" from="360 0 0" to="0 0 0" dur="16s" repeatCount="indefinite"/>
</circle>
<g transform="rotate(0)"><path d="M0 -77 L-8 -58 L8 -58 Z" fill="#35e9ff" fill-opacity=".16" stroke="#35e9ff" stroke-opacity=".62"/></g><g transform="rotate(60)"><path d="M0 -77 L-8 -58 L8 -58 Z" fill="#35e9ff" fill-opacity=".16" stroke="#35e9ff" stroke-opacity=".62"/></g><g transform="rotate(120)"><path d="M0 -77 L-8 -58 L8 -58 Z" fill="#35e9ff" fill-opacity=".16" stroke="#35e9ff" stroke-opacity=".62"/></g><g transform="rotate(180)"><path d="M0 -77 L-8 -58 L8 -58 Z" fill="#35e9ff" fill-opacity=".16" stroke="#35e9ff" stroke-opacity=".62"/></g><g transform="rotate(240)"><path d="M0 -77 L-8 -58 L8 -58 Z" fill="#35e9ff" fill-opacity=".16" stroke="#35e9ff" stroke-opacity=".62"/></g><g transform="rotate(300)"><path d="M0 -77 L-8 -58 L8 -58 Z" fill="#35e9ff" fill-opacity=".16" stroke="#35e9ff" stroke-opacity=".62"/></g>
<polygon points="0,-46 40,-23 40,23 0,46 -40,23 -40,-23"
 fill="#04131d" stroke="#35e9ff" stroke-width="1.4"/>
<path d="M-16 -19V16H15 M-16 -19L-3 -28M15 16L24 7" fill="none" stroke="#35e9ff" stroke-width="3.2" stroke-linecap="round" stroke-linejoin="round" filter="url(#glow)">
  <animate attributeName="stroke-opacity" values=".68;1;.68" dur="3.8s" repeatCount="indefinite"/>
</path>
<text x="0" y="60" text-anchor="middle" fill="#effcff" font-family="Segoe UI,Arial,sans-serif" font-size="12" font-weight="700">TRUST ROUTE</text>
<text x="0" y="76" text-anchor="middle" fill="#6b9aad" font-family="ui-monospace,Consolas,monospace" font-size="7">IDENTITY BOUNDARY</text>
</g>
<text x="42" y="628" fill="#557b8f" font-family="ui-monospace,Consolas,monospace" font-size="8.5">PUBLIC-SAFE SYSTEM VIEW // PRIVATE SOURCE, SECRETS AND SENSITIVE IMPLEMENTATION EXCLUDED</text>
<path d="M6 6H1194V644H6Z" fill="none" stroke="url(#edge)" stroke-width="2" stroke-dasharray="170 2500" filter="url(#glow)" opacity=".85"><animate attributeName="stroke-dashoffset" values="0;-2670" dur="18s" repeatCount="indefinite"/></path>
</svg>