<svg xmlns="http://www.w3.org/2000/svg" width="1200" height="150" viewBox="0 0 1200 150"><rect width="1200" height="150" rx="20" fill="#030b14"/><rect x="1" y="1" width="1198" height="148" rx="19" fill="none" stroke="#15364c"/><text x="42" y="40" fill="#58eaff" font-family="ui-monospace,Consolas,monospace" font-size="14" letter-spacing="2">PUBLIC CONTRIBUTION RUNNER</text><g transform="translate(42 85)"><path fill="#ffd43b" d="M32 0A32 32 0 1 0 32 64A32 32 0 0 0 58 45L32 32L58 19A32 32 0 0 0 32 0Z"><animateTransform attributeName="transform" type="translate" values="0 0;1000 0;0 0" dur="12s" repeatCount="indefinite"/></path><g fill="#35d7ff"><circle cx="120" cy="32" r="5"/><circle cx="190" cy="32" r="5"/><circle cx="260" cy="32" r="5"/><circle cx="330" cy="32" r="5"/><circle cx="400" cy="32" r="5"/><circle cx="470" cy="32" r="5"/><circle cx="540" cy="32" r="5"/><circle cx="610" cy="32" r="5"/><circle cx="680" cy="32" r="5"/><circle cx="750" cy="32" r="5"/><circle cx="820" cy="32" r="5"/><circle cx="890" cy="32" r="5"/><circle cx="960" cy="32" r="5"/></g></g><text x="1160" y="132" text-anchor="end" fill="#617f92" font-family="Segoe UI,Arial" font-size="11">GitHub Actions will replace this with the live contribution graph.</text></svg>