<svg xmlns="http://www.w3.org/2000/svg" width="1200" height="330" viewBox="0 0 1200 330">
<defs>
<linearGradient id="bg" x1="0" y1="0" x2="1" y2="1"><stop stop-color="#020812"/><stop offset=".55" stop-color="#061725"/><stop offset="1" stop-color="#020b13"/></linearGradient>
<linearGradient id="cyan" x1="0" y1="0" x2="1" y2="0"><stop stop-color="#087dff"/><stop offset=".5" stop-color="#2be8ff"/><stop offset="1" stop-color="#00a8ff"/></linearGradient>
<linearGradient id="amber" x1="0" y1="0" x2="1" y2="0"><stop stop-color="#ff9c31"/><stop offset=".5" stop-color="#ffd37c"/><stop offset="1" stop-color="#ff8c1f"/></linearGradient>
<filter id="g" x="-100%" y="-100%" width="300%" height="300%"><feGaussianBlur stdDeviation="4" result="b"/><feMerge><feMergeNode in="b"/><feMergeNode in="SourceGraphic"/></feMerge></filter>
<pattern id="grid" width="28" height="28" patternUnits="userSpaceOnUse"><path d="M28 0H0V28" fill="none" stroke="#12344b" opacity=".18"/></pattern>
</defs>
<rect width="1200" height="330" rx="24" fill="url(#bg)"/>
<rect width="1200" height="330" rx="24" fill="url(#grid)"/>
<rect x="1" y="1" width="1198" height="328" rx="23" fill="none" stroke="#173b51"/>
<text x="42" y="45" fill="#58eaff" font-family="ui-monospace,Consolas,monospace" font-size="15" letter-spacing="3">CONTRIBUTION ACTIVITY // ARCADE SIGNAL</text>
<text x="42" y="70" fill="#7899ac" font-family="Segoe UI,Arial,sans-serif" font-size="11">A playful contribution route kept inside the Leviathan interface language.</text>
<path id="route" d="M70 180 H260 V120 H470 V225 H680 V130 H890 V205 H1120" fill="none" stroke="#17465e" stroke-width="5" stroke-linejoin="round"/>
<rect x="97" y="177" width="6" height="6" rx="1" fill="#49efff" opacity=".8"/>
<rect x="147" y="177" width="6" height="6" rx="1" fill="#49efff" opacity=".8"/>
<rect x="197" y="177" width="6" height="6" rx="1" fill="#49efff" opacity=".8"/>
<rect x="257" y="147" width="6" height="6" rx="1" fill="#49efff" opacity=".8"/>
<rect x="317" y="117" width="6" height="6" rx="1" fill="#49efff" opacity=".8"/>
<rect x="377" y="117" width="6" height="6" rx="1" fill="#49efff" opacity=".8"/>
<rect x="437" y="117" width="6" height="6" rx="1" fill="#49efff" opacity=".8"/>
<rect x="467" y="167" width="6" height="6" rx="1" fill="#49efff" opacity=".8"/>
<rect x="527" y="222" width="6" height="6" rx="1" fill="#49efff" opacity=".8"/>
<rect x="587" y="222" width="6" height="6" rx="1" fill="#49efff" opacity=".8"/>
<rect x="647" y="222" width="6" height="6" rx="1" fill="#49efff" opacity=".8"/>
<rect x="677" y="172" width="6" height="6" rx="1" fill="#49efff" opacity=".8"/>
<rect x="737" y="127" width="6" height="6" rx="1" fill="#49efff" opacity=".8"/>
<rect x="797" y="127" width="6" height="6" rx="1" fill="#49efff" opacity=".8"/>
<rect x="857" y="127" width="6" height="6" rx="1" fill="#49efff" opacity=".8"/>
<rect x="887" y="167" width="6" height="6" rx="1" fill="#49efff" opacity=".8"/>
<rect x="947" y="202" width="6" height="6" rx="1" fill="#49efff" opacity=".8"/>
<rect x="1007" y="202" width="6" height="6" rx="1" fill="#49efff" opacity=".8"/>
<rect x="1067" y="202" width="6" height="6" rx="1" fill="#49efff" opacity=".8"/>
<path d="M0 -14 A14 14 0 1 1 0 14 L14 0 Z" fill="#ffd65c" transform="translate(70 180)" filter="url(#g)"><animateMotion dur="10s" repeatCount="indefinite"><mpath href="#route"/></animateMotion></path>
<path d="M-12 -12 H12 V10 L7 5 L2 10 L-3 5 L-8 10 L-12 6 Z" fill="#6f75ff"><animateMotion dur="12s" begin="2s" repeatCount="indefinite"><mpath href="#route"/></animateMotion></path>
<text x="70" y="285" fill="#6f93a6" font-family="ui-monospace,Consolas,monospace" font-size="10">PUBLIC COMMITS DETECTED // 215</text>
<rect x="4" y="4" width="1192" height="322" rx="21" fill="none" stroke="url(#cyan)" stroke-width="3" stroke-dasharray="636 2392" filter="url(#g)" opacity=".9"><animate attributeName="stroke-dashoffset" values="0;-3028" dur="10s" repeatCount="indefinite"/></rect>
</svg>