<svg xmlns="http://www.w3.org/2000/svg" width="1200" height="640" viewBox="0 0 1200 640">
<defs><linearGradient id="b" x1="0" y1="0" x2="1" y2="1"><stop stop-color="#020811"/><stop offset=".54" stop-color="#061723"/><stop offset="1" stop-color="#020a12"/></linearGradient><linearGradient id="q"><stop stop-color="#087dff"/><stop offset=".5" stop-color="#35e9ff"/><stop offset="1" stop-color="#00a5ff"/></linearGradient><radialGradient id="rg"><stop stop-color="#70f7ff" stop-opacity=".7"/><stop offset=".3" stop-color="#21dfff" stop-opacity=".12"/><stop offset="1" stop-color="#02101a" stop-opacity="0"/></radialGradient><filter id="gl"><feGaussianBlur stdDeviation="3" result="x"/><feMerge><feMergeNode in="x"/><feMergeNode in="SourceGraphic"/></feMerge></filter><pattern id="gr" width="28" height="28" patternUnits="userSpaceOnUse"><path d="M28 0H0V28" fill="none" stroke="#12374d" opacity=".15"/></pattern></defs>
<rect width="1200" height="640" rx="24" fill="url(#b)"/><rect width="1200" height="640" rx="24" fill="url(#gr)"/><rect x="1" y="1" width="1198" height="638" rx="23" fill="none" stroke="#173d52"/><text x="42" y="42" fill="#58eaff" font-family="monospace" font-size="14" letter-spacing="2.8">LEVIATHAN DEVELOPMENT PIPELINE // CONTINUOUS WORKSTREAMS</text><text x="42" y="66" fill="#789aac" font-family="Arial" font-size="11">A circular pipeline dial drives eight aligned release phases.</text><path d="M42 84H1158" stroke="#13384b"/><rect x="42" y="82" width="120" height="3" rx="2" fill="url(#q)" filter="url(#gl)"><animate attributeName="x" values="42;1038;42" dur="10s" repeatCount="indefinite"/></rect>
<g transform="translate(210 336)"><circle r="136" fill="url(#rg)"/><circle r="124" fill="none" stroke="#35e9ff" stroke-width="2" stroke-dasharray="62 18 15 11" filter="url(#gl)"><animateTransform attributeName="transform" type="rotate" from="0 0 0" to="360 0 0" dur="16s" repeatCount="indefinite"/></circle><circle r="105" fill="none" stroke="#28718b" stroke-dasharray="26 12 7 10"><animateTransform attributeName="transform" type="rotate" from="360 0 0" to="0 0 0" dur="11s" repeatCount="indefinite"/></circle><circle r="78" fill="#04131d" stroke="#35e9ff"/><circle r="4" fill="#a9fbff" filter="url(#gl)"/><text x="0" y="-3" text-anchor="middle" fill="#effcff" font-family="Arial" font-size="13" font-weight="700">PIPELINE</text><text x="0" y="14" text-anchor="middle" fill="#6aa1b5" font-family="monospace" font-size="7">RESEARCH → RELEASE</text></g>
<circle cx="390" cy="120" r="7" fill="#061722" stroke="#35e9ff" stroke-width="2"/><path d="M397 120H430" stroke="#35e9ff"/><path d="M430 98H1128L1142 112V142H430Z" fill="#061722" stroke="#19445a"/><text x="452" y="116" fill="#effcff" font-family="Arial" font-size="13" font-weight="700">RESEARCH</text><text x="700" y="116" fill="#789aac" font-family="Arial" font-size="9">ecosystem, compatibility, user needs</text>
<circle cx="390" cy="181" r="7" fill="#061722" stroke="#35e9ff" stroke-width="2"/><path d="M397 181H430" stroke="#35e9ff"/><path d="M430 159H1128L1142 173V203H430Z" fill="#061722" stroke="#19445a"/><text x="452" y="177" fill="#effcff" font-family="Arial" font-size="13" font-weight="700">ARCHITECTURE</text><text x="700" y="177" fill="#789aac" font-family="Arial" font-size="9">boundaries, APIs, data, security controls</text>
<circle cx="390" cy="242" r="7" fill="#061722" stroke="#35e9ff" stroke-width="2"/><path d="M397 242H430" stroke="#35e9ff"/><path d="M430 220H1128L1142 234V264H430Z" fill="#061722" stroke="#19445a"/><text x="452" y="238" fill="#effcff" font-family="Arial" font-size="13" font-weight="700">BUILD</text><text x="700" y="238" fill="#789aac" font-family="Arial" font-size="9">launcher, client, web, app, server, platform</text>
<circle cx="390" cy="303" r="7" fill="#061722" stroke="#35e9ff" stroke-width="2"/><path d="M397 303H430" stroke="#35e9ff"/><path d="M430 281H1128L1142 295V325H430Z" fill="#061722" stroke="#19445a"/><text x="452" y="299" fill="#effcff" font-family="Arial" font-size="13" font-weight="700">INTEGRATION</text><text x="700" y="299" fill="#789aac" font-family="Arial" font-size="9">auth, API, server links, device and web flows</text>
<circle cx="390" cy="364" r="7" fill="#061722" stroke="#ffb44e" stroke-width="2"/><path d="M397 364H430" stroke="#ffb44e"/><path d="M430 342H1128L1142 356V386H430Z" fill="#061722" stroke="#19445a"/><text x="452" y="360" fill="#effcff" font-family="Arial" font-size="13" font-weight="700">SECURITY &amp; INTEGRITY</text><text x="700" y="360" fill="#789aac" font-family="Arial" font-size="9">anticheat, abuse controls, privacy, diagnostics</text>
<circle cx="390" cy="425" r="7" fill="#061722" stroke="#55e4ae" stroke-width="2"/><path d="M397 425H430" stroke="#55e4ae"/><path d="M430 403H1128L1142 417V447H430Z" fill="#061722" stroke="#19445a"/><text x="452" y="421" fill="#effcff" font-family="Arial" font-size="13" font-weight="700">TEST &amp; VALIDATE</text><text x="700" y="421" fill="#789aac" font-family="Arial" font-size="9">compatibility, recovery, regression, devices</text>
<circle cx="390" cy="486" r="7" fill="#061722" stroke="#8b7cff" stroke-width="2"/><path d="M397 486H430" stroke="#8b7cff"/><path d="M430 464H1128L1142 478V508H430Z" fill="#061722" stroke="#19445a"/><text x="452" y="482" fill="#effcff" font-family="Arial" font-size="13" font-weight="700">OPERATE &amp; OBSERVE</text><text x="700" y="482" fill="#789aac" font-family="Arial" font-size="9">telemetry, analytics, status, support, logs</text>
<circle cx="390" cy="547" r="7" fill="#061722" stroke="#35e9ff" stroke-width="2"/><path d="M397 547H430" stroke="#35e9ff"/><path d="M430 525H1128L1142 539V569H430Z" fill="#061722" stroke="#19445a"/><text x="452" y="543" fill="#effcff" font-family="Arial" font-size="13" font-weight="700">RELEASE &amp; IMPROVE</text><text x="700" y="543" fill="#789aac" font-family="Arial" font-size="9">signing, distribution, docs, feedback</text>
<path id="rr" d="M390 120V547" stroke="#19495f" stroke-width="2"/><circle r="4" fill="#73f3ff"><animateMotion dur="7s" repeatCount="indefinite"><mpath href="#rr"/></animateMotion></circle>
<path id="rc" d="M322 336H390" fill="none" stroke="#35e9ff" stroke-width="1.6" stroke-opacity=".72"/><circle r="4" fill="#c0fbff" filter="url(#gl)"><animateMotion dur="3s" begin="0s" repeatCount="indefinite"><mpath href="#rc"/></animateMotion></circle>
<text x="42" y="618" fill="#557b8f" font-family="monospace" font-size="8.5">PUBLIC-SAFE SYSTEM VIEW // PRIVATE SOURCE, SECRETS AND SENSITIVE IMPLEMENTATION EXCLUDED</text>
<path d="M6 6H1194V634H6Z" fill="none" stroke="url(#q)" stroke-width="2" stroke-dasharray="180 2400" filter="url(#gl)"><animate attributeName="stroke-dashoffset" values="0;-2580" dur="14s" repeatCount="indefinite"/></path></svg>