<svg xmlns="http://www.w3.org/2000/svg" width="1200" height="540" viewBox="0 0 1200 540">
<defs>
<linearGradient id="bg" x1="0" y1="0" x2="1" y2="1"><stop stop-color="#f8fcff"/><stop offset=".52" stop-color="#edf8fe"/><stop offset="1" stop-color="#f7fcff"/></linearGradient>
<linearGradient id="cyan" x1="0" y1="0" x2="1" y2="0"><stop stop-color="#087cff"/><stop offset=".5" stop-color="#18c9e6"/><stop offset="1" stop-color="#00a8ff"/></linearGradient>
<filter id="g" x="-100%" y="-100%" width="300%" height="300%"><feGaussianBlur stdDeviation="3" result="b"/><feMerge><feMergeNode in="b"/><feMergeNode in="SourceGraphic"/></feMerge></filter>
<pattern id="grid" width="28" height="28" patternUnits="userSpaceOnUse"><path d="M28 0H0V28" fill="none" stroke="#8fb9d0" opacity=".20"/></pattern>
</defs>
<rect width="1200" height="540" rx="30" fill="url(#bg)"/><rect width="1200" height="540" rx="30" fill="url(#grid)"/>
<g font-family="ui-monospace,Consolas,monospace" font-size="9.5" letter-spacing="1.15"><text x="48" y="31" fill="#688c9e">LEVIATHAN SYSTEM</text><text x="201" y="31" fill="#7899aa">//</text><text x="226" y="31" fill="#159eb9">HOLOGRAPHIC PROJECT INTERFACE</text><text x="765" y="31" fill="#688c9e">ARCHITECTURE</text><text x="855" y="31" fill="#466b7d">CONNECTED</text><rect x="1085" y="23" width="8" height="8" rx="2" fill="#2aa676"><animate attributeName="opacity" values=".3;1;.3" dur="1.5s" repeatCount="indefinite"/></rect><text x="1105" y="31" fill="#688c9e">SIGNAL ONLINE</text></g>
<line x1="40" y1="48" x2="1160" y2="48" stroke="#b9d5e2"/><rect x="52" y="46" width="84" height="4" rx="2" fill="url(#cyan)" filter="url(#g)"><animate attributeName="x" values="52;1062;52" dur="8s" repeatCount="indefinite"/></rect>
<rect x="56" y="90" width="7" height="306" rx="4" fill="url(#cyan)"/>
<text x="92" y="120" fill="#159eb9" font-family="ui-monospace,Consolas,monospace" font-size="13" font-weight="700" letter-spacing="3.8">LEVIATHAN // SYSTEM READY</text>
<text x="90" y="202" fill="#102735" font-family="Inter,Segoe UI,Arial,sans-serif" font-size="76" font-weight="850">LEVIATHAN</text>
<g font-family="Inter,Segoe UI,Arial,sans-serif"><g opacity="0"><animate attributeName="opacity" values="0;1;1;0;0" keyTimes="0;.03;.22;.25;1" dur="16s" repeatCount="indefinite"/><text x="94" y="242" fill="#405f72" font-size="20">Connected Minecraft software and services.</text><text x="94" y="267" fill="#159eb9" font-family="ui-monospace,Consolas,monospace" font-size="10">CHANNEL // PLAYER SYSTEMS</text></g><g opacity="0"><animate attributeName="opacity" values="0;0;1;1;0;0" keyTimes="0;.25;.28;.47;.50;1" dur="16s" repeatCount="indefinite"/><text x="94" y="242" fill="#405f72" font-size="20">Launcher, client, web, app and community.</text><text x="94" y="267" fill="#6662c7" font-family="ui-monospace,Consolas,monospace" font-size="10">CHANNEL // EXPERIENCE</text></g><g opacity="0"><animate attributeName="opacity" values="0;0;1;1;0;0" keyTimes="0;.50;.53;.72;.75;1" dur="16s" repeatCount="indefinite"/><text x="94" y="242" fill="#405f72" font-size="20">Server systems, verification and protection.</text><text x="94" y="267" fill="#bd7524" font-family="ui-monospace,Consolas,monospace" font-size="10">CHANNEL // SECURITY + SERVERS</text></g><g opacity="0"><animate attributeName="opacity" values="0;0;1;1;0" keyTimes="0;.75;.78;.97;1" dur="16s" repeatCount="indefinite"/><text x="94" y="242" fill="#405f72" font-size="20">APIs, data, telemetry and developer operations.</text><text x="94" y="267" fill="#168e5b" font-family="ui-monospace,Consolas,monospace" font-size="10">CHANNEL // PLATFORM + OPS</text></g></g>
<text x="94" y="300" fill="#6a8798" font-family="ui-monospace,Consolas,monospace" font-size="10.5">LAUNCHER • CLIENT • WEB • APP • SERVERS • SECURITY • API • DATA • OPERATIONS</text>
<path d="M93 324 H642 L654 336 V402 H93 Z" fill="#f2f9fc" stroke="#bcd8e6"/><g font-family="ui-monospace,Consolas,monospace"><text x="116" y="347" fill="#7693a2" font-size="9">SYSTEM FAMILIES</text><text x="116" y="370" fill="#18333f" font-family="Segoe UI,Arial,sans-serif" font-size="14" font-weight="700">6 CONNECTED DOMAINS</text><text x="330" y="347" fill="#7693a2" font-size="9">VISIBILITY</text><text x="330" y="370" fill="#18333f" font-family="Segoe UI,Arial,sans-serif" font-size="14" font-weight="700">PUBLIC + PRIVATE</text><text x="508" y="347" fill="#7693a2" font-size="9">STATUS</text><text x="508" y="370" fill="#159eb9" font-family="Segoe UI,Arial,sans-serif" font-size="14" font-weight="700">PER PRODUCT</text></g><rect x="112" y="388" width="515" height="3" rx="2" fill="#d6e8ef"/><rect x="112" y="388" width="140" height="3" rx="2" fill="url(#cyan)"><animate attributeName="x" values="112;470;112" dur="6.5s" repeatCount="indefinite"/></rect>
<g transform="translate(700 66)"><path d="M22 26 H154 L184 0 H430" fill="none" stroke="#8db8c9" stroke-width="1.4"/><path d="M10 352 H138 L178 318 H458" fill="none" stroke="#8db8c9" stroke-width="1.4"/><path d="M440 16 V364 M80 8 V364" stroke="#abc9d6" stroke-dasharray="4 10"/>
<g transform="translate(236 190)"><path d="M-130 -44 A140 140 0 0 1 8 -136" fill="none" stroke="#0faec8" stroke-width="4" stroke-linecap="round"><animateTransform attributeName="transform" type="rotate" from="0" to="360" dur="18s" repeatCount="indefinite"/></path><path d="M122 -66 A132 132 0 0 1 62 112" fill="none" stroke="#4d91b2" stroke-width="2.5" stroke-dasharray="16 9"><animateTransform attributeName="transform" type="rotate" from="360" to="0" dur="13s" repeatCount="indefinite"/></path><path d="M-72 110 A122 122 0 0 1 -124 30" fill="none" stroke="#0faec8" stroke-width="3" stroke-dasharray="34 10"><animateTransform attributeName="transform" type="rotate" from="0" to="360" dur="22s" repeatCount="indefinite"/></path><path d="M-74 -24 L-28 -68 L28 -60 L69 -19 L48 35 L-3 62 L-51 36 Z" fill="none" stroke="#0faec8" stroke-width="3"/><path d="M-74 -24 L-3 62 M-28 -68 L48 35 M28 -60 L-51 36" fill="none" stroke="#6a9fb3" stroke-width="1.2"/><rect x="-6" y="-6" width="12" height="12" rx="2" fill="#0faec8"><animate attributeName="opacity" values=".25;1;.25" dur="1.4s" repeatCount="indefinite"/></rect><path id="orb" d="M-112 -40 Q0 -140 116 -32 Q138 44 50 112 Q-50 140 -118 50" fill="none" stroke="none"/><rect width="7" height="7" rx="2" fill="#0faec8"><animateMotion dur="5.8s" repeatCount="indefinite"><mpath href="#orb"/></animateMotion></rect><text x="0" y="95" text-anchor="middle" fill="#173947" font-family="Segoe UI,Arial,sans-serif" font-size="14" font-weight="800">LEVIATHAN.LINK</text><text x="0" y="113" text-anchor="middle" fill="#6f91a4" font-family="ui-monospace,Consolas,monospace" font-size="8">PROJECT ROUTING CORE</text></g>
<g font-family="ui-monospace,Consolas,monospace" font-size="8.5"><g><path d="M15 92 H126 L142 108 V150 H15 Z" fill="#eef8fc" stroke="#8fc5d7"/><text x="29" y="111" fill="#66889a">PLAYER</text><text x="29" y="131" fill="#204658">LAUNCH / CLIENT</text></g><g><path d="M346 70 H458 V120 L442 136 H346 Z" fill="#eef8fc" stroke="#aaa6dc"/><text x="360" y="90" fill="#6662c7">PLATFORM</text><text x="360" y="110" fill="#3c3977">API / AUTH</text></g><g><path d="M15 272 H144 V322 L128 338 H15 Z" fill="#eef8fc" stroke="#ddb27a"/><text x="29" y="292" fill="#bd7524">SECURITY</text><text x="29" y="312" fill="#71461a">VERIFY / GUARD</text></g><g><path d="M344 276 H462 V326 L446 342 H344 Z" fill="#eef8fc" stroke="#9ed5bb"/><text x="358" y="296" fill="#168e5b">OPERATIONS</text><text x="358" y="316" fill="#315f49">DATA / STATUS</text></g></g><path id="r1" d="M142 121 H182 L208 151" fill="none" stroke="#0faec8" stroke-width="2"/><rect width="7" height="7" rx="2" fill="#0faec8"><animateMotion dur="2.7s" repeatCount="indefinite"><mpath href="#r1"/></animateMotion></rect><path id="r2" d="M346 102 H318 L288 145" fill="none" stroke="#7770ff" stroke-width="2"/><rect width="7" height="7" rx="2" fill="#7770ff"><animateMotion dur="3.1s" repeatCount="indefinite"><mpath href="#r2"/></animateMotion></rect><path id="r3" d="M144 297 H184 L214 236" fill="none" stroke="#c47a29" stroke-width="2"/><rect width="7" height="7" rx="2" fill="#c47a29"><animateMotion dur="3.4s" repeatCount="indefinite"><mpath href="#r3"/></animateMotion></rect><path id="r4" d="M344 302 H320 L290 238" fill="none" stroke="#2aa676" stroke-width="2"/><rect width="7" height="7" rx="2" fill="#2aa676"><animateMotion dur="2.9s" repeatCount="indefinite"><mpath href="#r4"/></animateMotion></rect><rect x="0" y="0" width="470" height="1" fill="#0faec8" opacity=".12"><animate attributeName="y" values="20;356;20" dur="6.5s" repeatCount="indefinite"/></rect></g>
<line x1="40" y1="450" x2="1160" y2="450" stroke="#b9d5e2"/><g font-family="ui-monospace,Consolas,monospace" font-size="8.5"><text x="49" y="480" fill="#6c8d9f">PUBLIC SURFACE</text><text x="145" y="480" fill="#53788b">WEBSITE / PROFILE / DOCS / SDK / API / EXAMPLES / INTEGRATIONS / STATUS</text><text x="830" y="480" fill="#6c8d9f">SYSTEM</text><text x="886" y="480" fill="#168e5b">NOMINAL</text><text x="960" y="480" fill="#6c8d9f">DEEP SCAN</text><text x="1030" y="480" fill="#159eb9">ACTIVE</text></g><text x="48" y="512" fill="#708e9e" font-family="ui-monospace,Consolas,monospace" font-size="8.5">FUTURISTIC LAB INTERFACE INSPIRATION // ORIGINAL LEVIATHAN VISUAL LANGUAGE</text>
<rect x="4" y="4" width="1192" height="532" rx="27" fill="none" stroke="url(#cyan)" stroke-width="3" stroke-dasharray="460 1700" filter="url(#g)" opacity=".85"><animate attributeName="stroke-dashoffset" values="0;-2160" dur="8.5s" repeatCount="indefinite"/></rect>
</svg>