<svg xmlns="http://www.w3.org/2000/svg" width="1200" height="500" viewBox="0 0 1200 500"><defs><linearGradient id="bg" x1="0" y1="0" x2="1" y2="1"><stop stop-color="#01050a"/><stop offset=".55" stop-color="#061625"/><stop offset="1" stop-color="#020910"/></linearGradient><linearGradient id="cyan" x1="0" y1="0" x2="1" y2="0"><stop stop-color="#087dff"/><stop offset=".5" stop-color="#57f4ff"/><stop offset="1" stop-color="#00a8ff"/></linearGradient><linearGradient id="amber" x1="0" y1="0" x2="1" y2="1"><stop stop-color="#ff8b2b"/><stop offset=".55" stop-color="#ffbf4d"/><stop offset="1" stop-color="#ff6a00"/></linearGradient><filter id="g"><feGaussianBlur stdDeviation="4" result="b"/><feMerge><feMergeNode in="b"/><feMergeNode in="SourceGraphic"/></feMerge></filter><pattern id="grid" width="28" height="28" patternUnits="userSpaceOnUse"><path d="M28 0H0V28" fill="none" stroke="#12354b" opacity=".22"/></pattern></defs><rect width="1200" height="500" rx="28" fill="url(#bg)"/><rect width="1200" height="500" rx="28" fill="url(#grid)"/><g font-family="ui-monospace,Consolas,monospace" font-size="9.5" letter-spacing="1.2"><text x="46" y="30" fill="#557b90">LEVIATHAN SYSTEM</text><text x="194" y="30" fill="#6b91a5">//</text><text x="218" y="30" fill="#58ecff">HOLOGRAPHIC OPERATING INTERFACE</text><text x="714" y="30" fill="#557b90">BASELINE</text><text x="781" y="30" fill="#9cc8d8">v51.0.6</text><text x="887" y="30" fill="#557b90">PHASE</text><text x="930" y="30" fill="#56e9aa">STABILIZATION</text><rect x="1115" y="22" width="8" height="8" rx="2" fill="#56e9aa"><animate attributeName="opacity" values=".25;1;.25" dur="1.5s" repeatCount="indefinite"/></rect><text x="1134" y="30" fill="#6f95a9">ONLINE</text></g><line x1="40" y1="48" x2="1160" y2="48" stroke="#14364b"/><rect x="52" y="46" width="70" height="4" rx="2" fill="url(#cyan)" filter="url(#g)"><animate attributeName="x" values="52;1080;52" dur="8s" repeatCount="indefinite"/></rect><rect x="58" y="88" width="6" height="284" rx="3" fill="url(#cyan)" filter="url(#g)"/><text x="92" y="118" fill="#56edff" font-family="ui-monospace,Consolas,monospace" font-size="13" font-weight="700" letter-spacing="3.6">LEVIATHAN // SYSTEM READY</text><text x="90" y="198" fill="#f5fdff" font-family="Inter,Segoe UI,Arial,sans-serif" font-size="76" font-weight="850">LEVIATHAN</text><g font-family="Inter,Segoe UI,Arial,sans-serif"><g opacity="0"><animate attributeName="opacity" values="0;1;1;0;0" keyTimes="0;.03;.22;.25;1" dur="16s" repeatCount="indefinite"/><text x="94" y="238" fill="#c5dae4" font-size="20">Analyzing platform state and public interfaces.</text><text x="94" y="263" fill="#55eaff" font-family="ui-monospace,Consolas,monospace" font-size="10">MODE // ANALYSIS</text></g><g opacity="0"><animate attributeName="opacity" values="0;0;1;1;0;0" keyTimes="0;.25;.28;.47;.50;1" dur="16s" repeatCount="indefinite"/><text x="94" y="238" fill="#c5dae4" font-size="20">Routing launcher, client and service signals.</text><text x="94" y="263" fill="#8e8aff" font-family="ui-monospace,Consolas,monospace" font-size="10">MODE // PLATFORM</text></g><g opacity="0"><animate attributeName="opacity" values="0;0;1;1;0;0" keyTimes="0;.50;.53;.72;.75;1" dur="16s" repeatCount="indefinite"/><text x="94" y="238" fill="#c5dae4" font-size="20">Nimbus protection layer synchronized.</text><text x="94" y="263" fill="#ffb24f" font-family="ui-monospace,Consolas,monospace" font-size="10">MODE // SECURITY</text></g><g opacity="0"><animate attributeName="opacity" values="0;0;1;1;0" keyTimes="0;.75;.78;.97;1" dur="16s" repeatCount="indefinite"/><text x="94" y="238" fill="#c5dae4" font-size="20">Stabilization and validation in progress.</text><text x="94" y="263" fill="#56e9aa" font-family="ui-monospace,Consolas,monospace" font-size="10">MODE // VALIDATION</text></g></g><text x="94" y="295" fill="#6e91a5" font-family="ui-monospace,Consolas,monospace" font-size="10.5">LAUNCHER • CLIENT • PLATFORM • NIMBUS • API • CAST • TELEMETRY</text><rect x="93" y="316" width="545" height="70" rx="12" fill="#061722" stroke="#174156"/><g font-family="ui-monospace,Consolas,monospace"><text x="116" y="339" fill="#6e91a5" font-size="9">CURRENT PHASE</text><text x="116" y="359" fill="#effbff" font-family="Segoe UI,Arial,sans-serif" font-size="14" font-weight="700">STABILIZATION + VALIDATION</text><text x="395" y="339" fill="#6e91a5" font-size="9">SOURCE</text><text x="395" y="359" fill="#effbff" font-family="Segoe UI,Arial,sans-serif" font-size="14" font-weight="700">PRIVATE</text><text x="520" y="339" fill="#6e91a5" font-size="9">RELEASE GATE</text><text x="520" y="359" fill="#ffb24f" font-family="Segoe UI,Arial,sans-serif" font-size="14" font-weight="700">CLOSED</text></g><rect x="112" y="374" width="500" height="3" rx="2" fill="#102d3e"/><rect x="112" y="374" width="320" height="3" rx="2" fill="url(#cyan)"><animate attributeName="width" values="255;404;320;255" dur="7s" repeatCount="indefinite"/></rect><!-- volumetric Stark-inspired workspace --><g transform="translate(700 68)"><g fill="none" stroke="#18495f" stroke-width="1"><path d="M8 50 H124 L158 18 H260"/><path d="M292 25 H452"/><path d="M14 332 H162 L194 300 H460"/><path d="M436 72 V304" stroke-dasharray="4 9"/></g><!-- broken HUD arcs, deliberately incomplete --><g fill="none" transform="translate(248 183)"><path d="M-122 -40 A128 128 0 0 1 72 -104" stroke="#2adcf3" stroke-width="4" stroke-linecap="round"/><path d="M104 -58 A132 132 0 0 1 116 55" stroke="#2285b5" stroke-width="2" stroke-dasharray="10 8"/><path d="M82 96 A130 130 0 0 1 -92 96" stroke="#5cf3ff" stroke-width="3" stroke-dasharray="34 8"/><path d="M-119 55 A125 125 0 0 1 -126 -7" stroke="#1f7897" stroke-width="2"/><path d="M-88 -24 A94 94 0 0 1 18 -92" stroke="#55edff" stroke-width="2" stroke-dasharray="6 8"><animateTransform attributeName="transform" type="rotate" from="0" to="360" dur="18s" repeatCount="indefinite"/></path><path d="M73 -52 A92 92 0 0 1 80 40" stroke="#ffad43" stroke-width="2" stroke-dasharray="18 9"><animateTransform attributeName="transform" type="rotate" from="360" to="0" dur="13s" repeatCount="indefinite"/></path></g><!-- central projected object --> <g transform="translate(248 183)"><path d="M-57 -12 L-18 -47 L35 -39 L67 -4 L48 37 L1 55 L-47 31 Z" fill="none" stroke="#42ebff" stroke-width="3" filter="url(#g)"/><path d="M-57 -12 L1 55 M-18 -47 L48 37 M35 -39 L-47 31" fill="none" stroke="#1b83a4" stroke-width="1.4"/><rect x="-5" y="-5" width="10" height="10" rx="2" fill="#b5fbff" filter="url(#g)"><animate attributeName="opacity" values=".3;1;.3" dur="1.4s" repeatCount="indefinite"/></rect><text x="0" y="82" text-anchor="middle" fill="#d9f7fb" font-family="ui-monospace,Consolas,monospace" font-size="11" letter-spacing="2">LEVIATHAN CORE</text></g><!-- floating panes --><g font-family="ui-monospace,Consolas,monospace" font-size="8.5"><rect x="18" y="86" width="120" height="46" rx="4" fill="#061723" stroke="#1b5d76"/><text x="30" y="103" fill="#6f95a8">PLAYER SURFACE</text><text x="30" y="120" fill="#d1f3f8">SYNC / READY</text><rect x="355" y="80" width="112" height="46" rx="4" fill="#061723" stroke="#5d58b5"/><text x="367" y="97" fill="#8d89db">PLATFORM</text><text x="367" y="114" fill="#dddaff">ROUTING</text><rect x="24" y="254" width="124" height="46" rx="4" fill="#061723" stroke="#a0692d"/><text x="36" y="271" fill="#d49b56">SECURITY</text><text x="36" y="288" fill="#ffd4a0">NIMBUS ACTIVE</text><rect x="354" y="252" width="116" height="46" rx="4" fill="#061723" stroke="#2c835e"/><text x="366" y="269" fill="#63d5a2">VALIDATION</text><text x="366" y="286" fill="#c3f2db">IN PROGRESS</text></g><path id="r1" d="M138 109 H177 L205 143" fill="none" stroke="#45eaff" stroke-width="2"/><rect width="7" height="7" rx="2" fill="#affcff"><animateMotion dur="2.7s" repeatCount="indefinite"><mpath href="#r1"/></animateMotion></rect><path id="r2" d="M356 104 H326 L299 142" fill="none" stroke="#817bff" stroke-width="2"/><rect width="7" height="7" rx="2" fill="#958fff"><animateMotion dur="3.1s" repeatCount="indefinite"><mpath href="#r2"/></animateMotion></rect><path id="r3" d="M148 276 H186 L215 224" fill="none" stroke="#ffad43" stroke-width="2"/><rect width="7" height="7" rx="2" fill="#ffc06d"><animateMotion dur="3.4s" repeatCount="indefinite"><mpath href="#r3"/></animateMotion></rect><path id="r4" d="M354 274 H326 L292 224" fill="none" stroke="#55e8a6" stroke-width="2"/><rect width="7" height="7" rx="2" fill="#7af0b9"><animateMotion dur="2.9s" repeatCount="indefinite"><mpath href="#r4"/></animateMotion></rect><rect x="0" y="0" width="470" height="1" fill="#55efff" opacity=".16"><animate attributeName="y" values="20;332;20" dur="6.5s" repeatCount="indefinite"/></rect></g><line x1="40" y1="421" x2="1160" y2="421" stroke="#14364b"/><g font-family="ui-monospace,Consolas,monospace" font-size="8.5"><text x="49" y="450" fill="#557e92">PUBLIC SURFACE</text><text x="145" y="450" fill="#7ba1b5">PROFILE / DOCS / SDK / API / EXAMPLES / INTEGRATIONS / STATUS</text><text x="875" y="450" fill="#557e92">SYSTEM</text><text x="931" y="450" fill="#4deca8">NOMINAL</text><text x="1000" y="450" fill="#557e92">RELEASE</text><text x="1058" y="450" fill="#ffad56">INTERNAL ONLY</text></g><rect x="4" y="4" width="1192" height="492" rx="26" fill="none" stroke="#0b3346" stroke-width="1.5"/><rect x="4" y="4" width="1192" height="492" rx="26" fill="none" stroke="url(#cyan)" stroke-width="3" stroke-dasharray="450 1605" filter="url(#g)" opacity=".9"><animate attributeName="stroke-dashoffset" values="0;-2055" dur="9s" repeatCount="indefinite"/></rect></svg>