<svg xmlns="http://www.w3.org/2000/svg" width="1200" height="520" viewBox="0 0 1200 520">
<defs>
<linearGradient id="bg" x1="0" y1="0" x2="1" y2="1"><stop stop-color="#01050b"/><stop offset=".5" stop-color="#061624"/><stop offset="1" stop-color="#020911"/></linearGradient>
<linearGradient id="cyan" x1="0" y1="0" x2="1" y2="0"><stop stop-color="#087cff"/><stop offset=".5" stop-color="#49f3ff"/><stop offset="1" stop-color="#00a8ff"/></linearGradient>
<linearGradient id="amber" x1="0" y1="0" x2="1" y2="0"><stop stop-color="#ff9b2e"/><stop offset=".5" stop-color="#ffd07a"/><stop offset="1" stop-color="#ff8a1c"/></linearGradient>
<filter id="g" x="-100%" y="-100%" width="300%" height="300%"><feGaussianBlur stdDeviation="4" result="b"/><feMerge><feMergeNode in="b"/><feMergeNode in="SourceGraphic"/></feMerge></filter>
<pattern id="grid" width="28" height="28" patternUnits="userSpaceOnUse"><path d="M28 0H0V28" fill="none" stroke="#11344b" opacity=".20"/></pattern>
</defs>
<rect width="1200" height="520" rx="30" fill="url(#bg)"/><rect width="1200" height="520" rx="30" fill="url(#grid)"/>
<g font-family="ui-monospace,Consolas,monospace" font-size="9.5" letter-spacing="1.2"><text x="48" y="31" fill="#557b90">LEVIATHAN SYSTEM</text><text x="201" y="31" fill="#6d94a9">//</text><text x="226" y="31" fill="#50edff">HOLOGRAPHIC OPERATING INTERFACE</text><text x="706" y="31" fill="#557b90">BASELINE</text><text x="775" y="31" fill="#9cc8d8">v51.0.6</text><text x="886" y="31" fill="#557b90">PHASE</text><text x="930" y="31" fill="#56e9aa">STABILIZATION</text><rect x="1110" y="23" width="8" height="8" rx="2" fill="#53efa7"><animate attributeName="opacity" values=".3;1;.3" dur="1.5s" repeatCount="indefinite"/></rect><text x="1130" y="31" fill="#779bae">ONLINE</text></g>
<line x1="40" y1="48" x2="1160" y2="48" stroke="#14364b"/><rect x="52" y="46" width="78" height="4" rx="2" fill="url(#cyan)" filter="url(#g)"><animate attributeName="x" values="52;1070;52" dur="8s" repeatCount="indefinite"/></rect>
<rect x="56" y="90" width="7" height="290" rx="4" fill="url(#cyan)" filter="url(#g)"/>
<text x="92" y="120" fill="#58ecff" font-family="ui-monospace,Consolas,monospace" font-size="13" font-weight="700" letter-spacing="3.8">LEVIATHAN // SYSTEM READY</text><text x="90" y="202" fill="#f6fdff" font-family="Inter,Segoe UI,Arial,sans-serif" font-size="76" font-weight="850">LEVIATHAN</text>
<g font-family="Inter,Segoe UI,Arial,sans-serif"><g opacity="0"><animate attributeName="opacity" values="0;1;1;0;0" keyTimes="0;.03;.22;.25;1" dur="16s" repeatCount="indefinite"/><text x="94" y="242" fill="#c0d5df" font-size="20">Analyzing platform state and public interfaces.</text><text x="94" y="267" fill="#4fdff2" font-family="ui-monospace,Consolas,monospace" font-size="10">MODE // ANALYSIS</text></g><g opacity="0"><animate attributeName="opacity" values="0;0;1;1;0;0" keyTimes="0;.25;.28;.47;.50;1" dur="16s" repeatCount="indefinite"/><text x="94" y="242" fill="#c0d5df" font-size="20">Routing launcher, client and service signals.</text><text x="94" y="267" fill="#8c8aff" font-family="ui-monospace,Consolas,monospace" font-size="10">MODE // PLATFORM</text></g><g opacity="0"><animate attributeName="opacity" values="0;0;1;1;0;0" keyTimes="0;.50;.53;.72;.75;1" dur="16s" repeatCount="indefinite"/><text x="94" y="242" fill="#c0d5df" font-size="20">Nimbus protection layer synchronized.</text><text x="94" y="267" fill="#ffb35f" font-family="ui-monospace,Consolas,monospace" font-size="10">MODE // SECURITY</text></g><g opacity="0"><animate attributeName="opacity" values="0;0;1;1;0" keyTimes="0;.75;.78;.97;1" dur="16s" repeatCount="indefinite"/><text x="94" y="242" fill="#c0d5df" font-size="20">Stabilization and validation in progress.</text><text x="94" y="267" fill="#52efa7" font-family="ui-monospace,Consolas,monospace" font-size="10">MODE // VALIDATION</text></g></g>
<text x="94" y="300" fill="#6f91a4" font-family="ui-monospace,Consolas,monospace" font-size="10.5">LAUNCHER • CLIENT • PLATFORM • NIMBUS • API • CAST • TELEMETRY</text>
<rect x="93" y="320" width="550" height="76" rx="12" fill="#061722" stroke="#174156"/><g font-family="ui-monospace,Consolas,monospace"><text x="116" y="343" fill="#6e91a5" font-size="9">CURRENT PHASE</text><text x="116" y="364" fill="#effbff" font-family="Segoe UI,Arial,sans-serif" font-size="14" font-weight="700">STABILIZATION + VALIDATION</text><text x="400" y="343" fill="#6e91a5" font-size="9">SOURCE</text><text x="400" y="364" fill="#effbff" font-family="Segoe UI,Arial,sans-serif" font-size="14" font-weight="700">PRIVATE</text><text x="528" y="343" fill="#6e91a5" font-size="9">RELEASE GATE</text><text x="528" y="364" fill="#ffb25b" font-family="Segoe UI,Arial,sans-serif" font-size="14" font-weight="700">CLOSED</text></g><rect x="112" y="382" width="503" height="3" rx="2" fill="#102d3e"/><rect x="112" y="382" width="320" height="3" rx="2" fill="url(#cyan)"><animate attributeName="width" values="250;410;320;250" dur="7s" repeatCount="indefinite"/></rect>
<g transform="translate(700 68)"><path d="M20 28 H168 L198 0 H356" fill="none" stroke="#164c63" stroke-width="1.4"/><path d="M18 338 H150 L185 304 H455" fill="none" stroke="#164c63" stroke-width="1.4"/><path d="M438 20 V350 M77 10 V350" stroke="#11394e" stroke-dasharray="4 10"/><g transform="translate(235 180)"><path d="M-118 -28 L-82 -92 L-18 -118 L49 -102 L102 -60" fill="none" stroke="#2ddff4" stroke-width="4" stroke-linecap="round"/><path d="M118 -15 L99 54 L54 101 L-10 119" fill="none" stroke="#4d91b2" stroke-width="2" stroke-dasharray="16 9"/><path d="M-60 103 L-102 61 L-118 18" fill="none" stroke="#2ddff4" stroke-width="3" stroke-dasharray="34 10"/><path d="M-74 -24 L-28 -68 L28 -60 L69 -19 L48 35 L-3 62 L-51 36 Z" fill="none" stroke="#4ceaff" stroke-width="3"/><path d="M-74 -24 L-3 62 M-28 -68 L48 35 M28 -60 L-51 36" fill="none" stroke="#1f6e87" stroke-width="1.2"/><rect x="-6" y="-6" width="12" height="12" rx="2" fill="#65f3ff" filter="url(#g)"><animate attributeName="opacity" values=".25;1;.25" dur="1.4s" repeatCount="indefinite"/></rect><path id="orb" d="M-108 -38 Q0 -132 110 -34 Q132 40 48 104 Q-48 136 -112 48" fill="none" stroke="none"/><rect width="7" height="7" rx="2" fill="#9bf9ff"><animateMotion dur="5.8s" repeatCount="indefinite"><mpath href="#orb"/></animateMotion></rect></g><g font-family="ui-monospace,Consolas,monospace" font-size="8.5"><g><path d="M15 94 H122 L138 110 V152 H15 Z" fill="#061723" stroke="#1b5d76"/><text x="29" y="112" fill="#6f95a8">PLAYER SURFACE</text><text x="29" y="132" fill="#c8edf4">SYNC / READY</text></g><g><path d="M346 72 H450 V122 L434 138 H346 Z" fill="#061723" stroke="#5651ae"/><text x="360" y="92" fill="#8b88dc">PLATFORM</text><text x="360" y="112" fill="#d8d6ff">ROUTING</text></g><g><path d="M15 264 H140 V314 L124 330 H15 Z" fill="#061723" stroke="#9a662d"/><text x="29" y="284" fill="#d49b56">SECURITY</text><text x="29" y="304" fill="#ffd29c">NIMBUS ACTIVE</text></g><g><path d="M344 270 H460 V320 L444 336 H344 Z" fill="#061723" stroke="#2b835f"/><text x="358" y="290" fill="#63d5a2">VALIDATION</text><text x="358" y="310" fill="#bcefd7">IN PROGRESS</text></g></g><path id="r1" d="M138 123 H176 L205 151" fill="none" stroke="#3ce7ff" stroke-width="2"/><rect width="7" height="7" rx="2" fill="#a7fbff"><animateMotion dur="2.7s" repeatCount="indefinite"><mpath href="#r1"/></animateMotion></rect><path id="r2" d="M346 104 H317 L286 146" fill="none" stroke="#7770ff" stroke-width="2"/><rect width="7" height="7" rx="2" fill="#8e89ff"><animateMotion dur="3.1s" repeatCount="indefinite"><mpath href="#r2"/></animateMotion></rect><path id="r3" d="M140 289 H182 L212 230" fill="none" stroke="#ffad56" stroke-width="2"/><rect width="7" height="7" rx="2" fill="#ffbd76"><animateMotion dur="3.4s" repeatCount="indefinite"><mpath href="#r3"/></animateMotion></rect><path id="r4" d="M344 294 H320 L289 232" fill="none" stroke="#51e7a6" stroke-width="2"/><rect width="7" height="7" rx="2" fill="#7bf0bb"><animateMotion dur="2.9s" repeatCount="indefinite"><mpath href="#r4"/></animateMotion></rect><rect x="0" y="0" width="470" height="1" fill="#55efff" opacity=".12"><animate attributeName="y" values="20;340;20" dur="6.5s" repeatCount="indefinite"/></rect></g>
<line x1="40" y1="438" x2="1160" y2="438" stroke="#14364b"/><g font-family="ui-monospace,Consolas,monospace" font-size="8.5"><text x="49" y="468" fill="#557e92">PUBLIC SURFACE</text><text x="145" y="468" fill="#7ba1b5">PROFILE / DOCS / SDK / API / EXAMPLES / INTEGRATIONS / STATUS</text><text x="875" y="468" fill="#557e92">SYSTEM</text><text x="931" y="468" fill="#4deca8">NOMINAL</text><text x="1000" y="468" fill="#557e92">RELEASE</text><text x="1058" y="468" fill="#ffad56">INTERNAL ONLY</text></g>
<rect x="4" y="4" width="1192" height="512" rx="27" fill="none" stroke="url(#cyan)" stroke-width="3" stroke-dasharray="450 1650" filter="url(#g)" opacity=".9"><animate attributeName="stroke-dashoffset" values="0;-2100" dur="8.5s" repeatCount="indefinite"/></rect>
</svg>